#!OML:ASF F:\VICON\USERDATA\INSTALL\rory3\rory3.ASF
:FULLY-SPECIFIED
:DEGREES
1924
root 0.391177 16.926 -0.304663 -8.04341 -13.3114 -1.89281
lowerback -2.7118 -2.59266 -2.71867
upperback 4.76435 -3.45508 2.07817
thorax 6.78552 -1.91613 3.39312
lowerneck 15.918 -6.90157 -21.5211
upperneck 12.6588 -14.2594 19.9651
head 4.12176 -8.05013 9.97866
rclavicle 4.47429e-014 -2.90226e-014
rhumerus -16.9794 18.4156 -82.4119
rradius 142.548
rwrist -51.0026
rhand 44.2997 21.462
rfingers 7.12502
rthumb 65.8489 15.7649
lclavicle 4.47429e-014 -2.90226e-014
lhumerus -12.1857 -33.1039 87.7152
lradius 140.205
lwrist 66.0588
lhand 46.7918 36.9287
lfingers 7.12502
lthumb 67.7246 38.7957
rfemur 1.2765 11.8217 20.7575
rtibia 25.2946
rfoot -21.3612 -2.23366
rtoes -26.6813
lfemur 3.27334 -3.66547 -19.9971
ltibia 29.7222
lfoot -23.9789 13.9888
ltoes -10.0972
1925
root 0.396821 16.9319 -0.305765 -7.95436 -13.3997 -1.85512
lowerback -2.57973 -2.55704 -2.72318
upperback 4.69059 -3.40602 2.04154
thorax 6.6239 -1.88754 3.36897
lowerneck 15.7513 -7.08157 -21.4184
upperneck 12.4318 -14.4592 20.1973
head 4.13038 -8.13304 10.0198
rclavicle -8.35672e-015 7.15625e-015
rhumerus -17.2835 18.2664 -82.4686
rradius 142.578
rwrist -50.9329
rhand 44.0371 21.2688
rfingers 7.12502
rthumb 65.6452 15.204
lclavicle -8.35672e-015 7.15625e-015
lhumerus -12.3424 -33.1826 87.7962
lradius 140.204
lwrist 66.0247
lhand 46.7899 36.9001
lfingers 7.12502
lthumb 67.7232 38.7702
rfemur 1.25112 11.8529 20.6736
rtibia 25.084
rfoot -21.3095 -2.07369
rtoes -26.2769
lfemur 3.20332 -3.71464 -20.0853
ltibia 29.7015
lfoot -23.9902 14.1259
ltoes -9.96108
1926
root 0.400926 16.9382 -0.306728 -7.77102 -13.515 -1.93768
lowerback -2.5116 -2.52724 -2.62496
upperback 4.59904 -3.37056 2.02726
thorax 6.4764 -1.86104 3.3069
lowerneck 15.5287 -7.28128 -21.2674
upperneck 12.2 -14.6685 20.4243
head 4.14508 -8.21573 10.0461
rclavicle -5.6336e-014 7.55382e-015
rhumerus -17.57 18.0504 -82.5687
rradius 142.628
rwrist -50.9433
rhand 43.8198 21.091
rfingers 7.12502
rthumb 65.4758 14.7267
lclavicle -5.6336e-014 7.55382e-015
lhumerus -12.4917 -33.2262 87.8213
lradius 140.244
lwrist 66.073
lhand 46.5992 36.9047
lfingers 7.12502
lthumb 67.5837 39.091
rfemur 1.13989 11.988 20.7352
rtibia 24.8978
rfoot -21.1842 -2.13137
rtoes -26.9356
lfemur 3.06675 -3.77102 -20.0312
ltibia 29.6406
lfoot -24.0119 14.403
ltoes -10.7849
1927
root 0.40366 16.9457 -0.309352 -7.52869 -13.6499 -2.11954
lowerback -2.452 -2.51341 -2.51686
upperback 4.46784 -3.36131 2.09943
thorax 6.29951 -1.84885 3.32789
lowerneck 15.4142 -7.4368 -21.1864
upperneck 11.8819 -14.8321 20.634
head 4.11165 -8.28491 10.0864
rclavicle -4.86844e-014 5.96354e-015
rhumerus -17.9016 17.8547 -82.6189
rradius 142.639
rwrist -50.9341
rhand 43.635 20.8412
rfingers 7.12502
rthumb 65.3312 14.2255
lclavicle -4.86844e-014 5.96354e-015
lhumerus -12.6947 -33.1912 87.9349
lradius 140.295
lwrist 66.0264
lhand 46.3185 36.8441
lfingers 7.12502
lthumb 67.377 39.4886
rfemur 0.970919 12.197 20.9252
rtibia 24.7292
rfoot -21.0331 -2.28933
rtoes -27.6982
lfemur 2.8798 -3.69951 -19.8186
ltibia 29.5517
lfoot -23.8847 14.5371
ltoes -11.4035
1928
root 0.40653 16.9528 -0.310953 -7.34792 -13.7351 -2.13891
lowerback -2.40307 -2.51692 -2.58042
upperback 4.34318 -3.36442 2.14897
thorax 6.14679 -1.85074 3.41976
lowerneck 15.3146 -7.56832 -21.2076
upperneck 11.5457 -14.9827 20.8923
head 4.07955 -8.35324 10.1631
rclavicle -1.17604e-014 7.95139e-016
rhumerus -18.1998 17.6774 -82.6078
rradius 142.62
rwrist -50.9333
rhand 43.5134 20.763
rfingers 7.12502
rthumb 65.2357 13.9835
lclavicle -1.17604e-014 7.95139e-016
lhumerus -12.7795 -33.034 88.0208
lradius 140.291
lwrist 65.9343
lhand 46.5039 36.8135
lfingers 7.12502
lthumb 67.5137 39.1562
rfemur 0.832958 12.3656 20.9275
rtibia 24.5819
rfoot -20.9167 -2.34541
rtoes -27.717
lfemur 2.73113 -3.65623 -19.7826
ltibia 29.43
lfoot -23.7588 14.5057
ltoes -11.1171
1929
root 0.411248 16.9602 -0.311181 -7.20966 -13.7647 -2.02649
lowerback -2.35859 -2.5647 -2.71741
upperback 4.24699 -3.41922 2.12127
thorax 6.03106 -1.88021 3.46686
lowerneck 15.0146 -7.72829 -21.186
upperneck 11.3124 -15.1407 21.1032
head 4.10624 -8.41254 10.2019
rclavicle -8.26399e-014 2.10712e-014
rhumerus -18.3441 17.5532 -82.6749
rradius 142.614
rwrist -50.9915
rhand 43.314 20.7288
rfingers 7.12502
rthumb 65.0788 13.6837
lclavicle -8.26399e-014 2.10712e-014
lhumerus -12.7365 -32.7104 87.9029
lradius 140.297
lwrist 66.0934
lhand 47.0335 36.9625
lfingers 7.12502
lthumb 67.9004 38.4227
rfemur 0.724666 12.4466 20.764
rtibia 24.4312
rfoot -20.8125 -2.31575
rtoes -27.4721
lfemur 2.62846 -3.67198 -19.9143
ltibia 29.2799
lfoot -23.8044 14.4189
ltoes -10.2279
1930
root 0.416644 16.9673 -0.31163 -7.04748 -13.8031 -1.8833
lowerback -2.30677 -2.57731 -2.847
upperback 4.11557 -3.42467 2.04827
thorax 5.86618 -1.88193 3.46782
lowerneck 14.7233 -7.93701 -21.0106
upperneck 11.0702 -15.3417 21.283
head 4.12491 -8.48749 10.2001
rclavicle -2.14144e-014 2.06736e-014
rhumerus -18.567 17.3521 -82.8253
rradius 142.658
rwrist -50.957
rhand 43.1054 20.4142
rfingers 7.12502
rthumb 64.914 13.0948
lclavicle -2.14144e-014 2.06736e-014
lhumerus -12.8438 -32.4795 87.8332
lradius 140.345
lwrist 66.3377
lhand 47.1783 37.1579
lfingers 7.12502
lthumb 68.0052 38.3711
rfemur 0.576935 12.5101 20.5493
rtibia 24.2628
rfoot -20.6976 -2.3279
rtoes -27.5787
lfemur 2.52121 -3.75064 -20.1129
ltibia 29.0917
lfoot -23.7604 14.5517
ltoes -10.0276
1931
root 0.421686 16.9769 -0.311725 -6.8373 -13.9002 -1.89213
lowerback -2.29983 -2.55958 -2.81327
upperback 4.01422 -3.39987 2.01982
thorax 5.74866 -1.86371 3.4237
lowerneck 14.4053 -8.17921 -20.8189
upperneck 10.774 -15.5729 21.4539
head 4.13763 -8.57495 10.1864
rclavicle 4.18038e-014 -1.55052e-014
rhumerus -18.7838 17.1477 -82.9598
rradius 142.704
rwrist -50.8273
rhand 42.863 20.24
rfingers 7.12502
rthumb 64.7217 12.6066
lclavicle 4.18038e-014 -1.55052e-014
lhumerus -12.969 -32.3478 87.8337
lradius 140.387
lwrist 66.2294
lhand 47.1637 37.1958
lfingers 7.12502
lthumb 67.9946 38.4341
rfemur 0.416624 12.6531 20.5136
rtibia 24.0919
rfoot -20.5314 -2.3682
rtoes -27.4654
lfemur 2.41774 -3.81704 -20.1483
ltibia 28.9071
lfoot -23.7154 14.7195
ltoes -10.0496
1932
root 0.424669 16.988 -0.313425 -6.63037 -14.0131 -1.98582
lowerback -2.26151 -2.54258 -2.74037
upperback 3.93298 -3.38215 2.05229
thorax 5.63677 -1.84961 3.42159
lowerneck 14.0766 -8.40061 -20.7856
upperneck 10.4274 -15.7949 21.6885
head 4.15376 -8.66357 10.2206
rclavicle 1.1309e-014 2.78299e-015
rhumerus -18.9742 17.0139 -82.9851
rradius 142.747
rwrist -50.7176
rhand 42.5529 20.2984
rfingers 7.12502
rthumb 64.4747 12.2705
lclavicle 1.1309e-014 2.78299e-015
lhumerus -13.0199 -32.2176 87.8573
lradius 140.41
lwrist 65.9226
lhand 47.2348 37.0918
lfingers 7.12502
lthumb 68.0459 38.2081
rfemur 0.297461 12.8444 20.5968
rtibia 23.9004
rfoot -20.3301 -2.41942
rtoes -27.3102
lfemur 2.29209 -3.88717 -20.0739
ltibia 28.7671
lfoot -23.6892 14.8888
ltoes -10.1102
1933
root 0.428676 16.9949 -0.316253 -6.45168 -14.0622 -2.00237
lowerback -2.16562 -2.56286 -2.75611
upperback 3.84932 -3.41039 2.0713
thorax 5.49836 -1.86147 3.45404
lowerneck 13.5578 -8.64161 -20.7689
upperneck 10.2082 -16.0267 21.8537
head 4.23864 -8.74586 10.2175
rclavicle 3.52419e-014 -1.98785e-015
rhumerus -19.1326 16.8614 -82.9631
rradius 142.794
rwrist -50.715
rhand 42.4225 20.4784
rfingers 7.12502
rthumb 64.3703 12.2869
lclavicle 3.52419e-014 -1.98785e-015
lhumerus -12.9588 -32.0182 87.7679
lradius 140.416
lwrist 65.7342
lhand 47.2276 36.926
lfingers 7.12502
lthumb 68.0407 38.0547
rfemur 0.211747 12.9919 20.5861
rtibia 23.6602
rfoot -20.1999 -2.38113
rtoes -27.1542
lfemur 2.13906 -3.96087 -20.0726
ltibia 28.6716
lfoot -23.6887 14.884
ltoes -9.60266
1934
root 0.433528 16.9997 -0.319526 -6.23395 -14.1538 -2.06327
lowerback -2.07192 -2.57236 -2.7118
upperback 3.73771 -3.42592 2.07796
thorax 5.32605 -1.86319 3.44154
lowerneck 13.0078 -8.89983 -20.6575
upperneck 10.0383 -16.2732 22.0023
head 4.33828 -8.83001 10.1881
rclavicle -6.41381e-015 -1.19271e-015
rhumerus -19.349 16.6391 -83.013
rradius 142.815
rwrist -50.7273
rhand 42.5418 20.6369
rfingers 7.12502
rthumb 64.4658 12.595
lclavicle -6.41381e-015 -1.19271e-015
lhumerus -12.9728 -31.792 87.614
lradius 140.482
lwrist 65.674
lhand 47.0291 36.9085
lfingers 7.12502
lthumb 67.8973 38.3761
rfemur 0.0826365 13.1523 20.6152
rtibia 23.4045
rfoot -20.068 -2.36263
rtoes -27.2166
lfemur 1.95618 -3.94702 -20.0092
ltibia 28.5905
lfoot -23.668 14.8972
ltoes -9.48837
1935
root 0.43759 17.0078 -0.321361 -5.97381 -14.3069 -2.22213
lowerback -1.99983 -2.55033 -2.54308
upperback 3.60913 -3.40487 2.10467
thorax 5.13868 -1.84188 3.38235
lowerneck 12.4663 -9.14911 -20.4807
upperneck 9.87899 -16.497 22.0901
head 4.42452 -8.90077 10.1274
rclavicle -8.31625e-014 1.55052e-014
rhumerus -19.5846 16.3814 -83.0736
rradius 142.82
rwrist -50.7888
rhand 42.6425 20.6614
rfingers 7.12502
rthumb 64.5462 12.7466
lclavicle -8.31625e-014 1.55052e-014
lhumerus -13.1038 -31.6902 87.5303
lradius 140.558
lwrist 65.4994
lhand 47.0102 36.7669
lfingers 7.12502
lthumb 67.8836 38.2665
rfemur -0.0812591 13.3422 20.7506
rtibia 23.1796
rfoot -19.8598 -2.43156
rtoes -27.1272
lfemur 1.78578 -3.95661 -19.8514
ltibia 28.4863
lfoot -23.7909 14.9511
ltoes -8.84103
1936
root 0.442564 17.0188 -0.322479 -5.71697 -14.4533 -2.26833
lowerback -1.86013 -2.56 -2.52493
upperback 3.41054 -3.42094 2.1609
thorax 4.8546 -1.84343 3.44022
lowerneck 11.9277 -9.35475 -20.437
upperneck 9.80261 -16.682 22.0955
head 4.53155 -8.9568 10.0621
rclavicle -3.34999e-014 -1.51076e-014
rhumerus -19.8601 16.3263 -83.049
rradius 142.846
rwrist -50.8293
rhand 42.5585 20.6348
rfingers 7.12502
rthumb 64.4791 12.6139
lclavicle -3.34999e-014 -1.51076e-014
lhumerus -13.3196 -31.4755 87.5663
lradius 140.642
lwrist 65.3268
lhand 46.8931 36.5898
lfingers 7.12502
lthumb 67.7984 38.2871
rfemur -0.265036 13.5058 20.7409
rtibia 22.9564
rfoot -19.6594 -2.4392
rtoes -27.0918
lfemur 1.60801 -4.05173 -19.8376
ltibia 28.3538
lfoot -23.9609 14.9922
ltoes -7.79614
1937
root 0.449322 17.0295 -0.324421 -5.5132 -14.5685 -2.20492
lowerback -1.67831 -2.58427 -2.61824
upperback 3.22539 -3.45165 2.18838
thorax 4.56779 -1.8557 3.53152
lowerneck 11.3332 -9.58459 -20.3859
upperneck 9.73836 -16.8911 22.0822
head 4.65538 -9.02067 9.98114
rclavicle -1.22812e-014 2.78299e-015
rhumerus -20.075 16.3124 -83.0335
rradius 142.878
rwrist -50.7877
rhand 42.4572 20.5725
rfingers 7.12502
rthumb 64.3981 12.4243
lclavicle -1.22812e-014 2.78299e-015
lhumerus -13.492 -31.1808 87.5718
lradius 140.669
lwrist 65.2653
lhand 47.0273 36.6205
lfingers 7.12502
lthumb 67.8959 38.0912
rfemur -0.415383 13.62 20.6012
rtibia 22.7391
rfoot -19.55 -2.34288
rtoes -27.0082
lfemur 1.46526 -4.07976 -19.9365
ltibia 28.1875
lfoot -23.8114 15.1939
ltoes -8.09537
1938
root 0.454234 17.0367 -0.327069 -5.35944 -14.6971 -2.15698
lowerback -1.55232 -2.55847 -2.65136
upperback 3.14447 -3.41539 2.14994
thorax 4.40809 -1.8343 3.52004
lowerneck 10.587 -9.88986 -20.227
upperneck 9.69791 -17.1841 22.1413
head 4.82807 -9.11166 9.88737
rclavicle 8.296e-014 -2.04748e-014
rhumerus -20.274 16.1605 -83.0946
rradius 142.905
rwrist -50.7132
rhand 42.4027 20.5402
rfingers 7.12502
rthumb 64.3545 12.324
lclavicle 8.296e-014 -2.04748e-014
lhumerus -13.5046 -30.9985 87.4585
lradius 140.649
lwrist 65.2307
lhand 47.4124 36.8234
lfingers 7.12502
lthumb 68.1736 37.6326
rfemur -0.535447 13.7469 20.5048
rtibia 22.5386
rfoot -19.465 -2.27646
rtoes -27.0696
lfemur 1.39011 -4.09866 -20.013
ltibia 28.0025
lfoot -23.6816 15.3291
ltoes -8.0148
